<svg xmlns="http://www.w3.org/2000/svg" viewBox="0 0 360.7 431.92"><defs><style>.cls-1{fill:#b59261;}</style></defs><g id="Layer_2" data-name="Layer 2"><g id="Layer_1-2" data-name="Layer 1"><path class="cls-1" d="M222.81,431.92a19.16,19.16,0,0,1-19.13-19.56c.1-10.43,8.9-18.72,19.78-18.65a19.17,19.17,0,0,1,19,19.43C242.38,423.63,233.64,432,222.81,431.92Z"/></g><g id="Layer_2-2" data-name="Layer 2"><path class="cls-1" d="M176.37,100.81l8.76-15.12A3.79,3.79,0,0,0,181.85,80H28.45a3.79,3.79,0,0,1-3.79-3.79V27.67a3.79,3.79,0,0,1,3.79-3.79H252a3.79,3.79,0,0,1,3.28,5.69l-229,396.66a3.8,3.8,0,0,0,3.29,5.69l127.74-.07a3.8,3.8,0,0,0,3.28-1.89L360.18,85.69A3.79,3.79,0,0,0,356.9,80H291.4a3.8,3.8,0,0,0-3.28,1.89L279.53,96.7a3.79,3.79,0,0,0,3.29,5.69h32a3.78,3.78,0,0,1,3.28,5.69L144.72,407.3a3.77,3.77,0,0,1-3.3,1.89l-68.78-.26a3.79,3.79,0,0,1-3.27-5.69L299.84,5.71A3.78,3.78,0,0,0,296.56,0L3.82,0A3.79,3.79,0,0,0,0,3.79L0,98.6a3.79,3.79,0,0,0,3.79,3.79H173.63A3.17,3.17,0,0,0,176.37,100.81Z"/></g></g></svg>