<?xml version="1.0" encoding="utf-8"?>
<!-- Generator: Adobe Illustrator 25.0.0, SVG Export Plug-In . SVG Version: 6.00 Build 0)  -->
<svg version="1.1" id="Layer_1" xmlns="http://www.w3.org/2000/svg" xmlns:xlink="http://www.w3.org/1999/xlink" x="0px" y="0px"
	 viewBox="0 0 360.7 431.9" style="enable-background:new 0 0 360.7 431.9;" xml:space="preserve">
<style type="text/css">
	.st0{opacity:0.65;}
	.st1{fill:#B59261;}
</style>
<g id="Layer_2_1_" class="st0">
	<g id="Layer_1-2">
		<path class="st1" d="M222.8,431.9c-10.6,0-19.1-8.6-19.1-19.2c0-0.1,0-0.2,0-0.4c0.1-10.4,8.9-18.7,19.8-18.6
			c10.6,0.1,19.1,8.8,19,19.3c0,0,0,0.1,0,0.1C242.4,423.6,233.6,432,222.8,431.9z"/>
	</g>
	<g id="Layer_2-2">
		<path class="st1" d="M176.4,100.8l8.8-15.1c1-1.8,0.4-4.1-1.4-5.2c-0.6-0.3-1.2-0.5-1.9-0.5H28.5c-2.1,0-3.8-1.7-3.8-3.8l0,0V27.7
			c0-2.1,1.7-3.8,3.8-3.8l0,0H252c2.1,0,3.8,1.7,3.8,3.8c0,0.7-0.2,1.3-0.5,1.9l-229,396.7c-1,1.8-0.4,4.1,1.4,5.2
			c0.6,0.3,1.2,0.5,1.9,0.5l127.7-0.1c1.4,0,2.6-0.7,3.3-1.9L360.2,85.7c1-1.8,0.4-4.1-1.4-5.2c-0.6-0.3-1.2-0.5-1.9-0.5h-65.5
			c-1.4,0-2.6,0.7-3.3,1.9l-8.6,14.8c-1,1.8-0.4,4.1,1.4,5.2c0.6,0.3,1.2,0.5,1.9,0.5h32c2.1,0,3.8,1.7,3.8,3.8
			c0,0.7-0.2,1.3-0.5,1.9L144.7,407.3c-0.7,1.2-1.9,1.9-3.3,1.9l-68.8-0.3c-2.1,0-3.8-1.7-3.8-3.8c0-0.7,0.2-1.3,0.5-1.9L299.8,5.7
			c1.1-1.8,0.5-4.1-1.3-5.2c-0.6-0.4-1.3-0.5-2-0.5H3.8C1.7,0,0,1.7,0,3.8c0,0,0,0,0,0v94.8c0,2.1,1.7,3.8,3.8,3.8c0,0,0,0,0,0
			h169.8C174.8,102.4,175.8,101.8,176.4,100.8z"/>
	</g>
</g>
</svg>
